<svg width="24" height="24" viewBox="0 0 24 24" fill="none" xmlns="http://www.w3.org/2000/svg">
<circle cx="12" cy="12" r="12" fill="#FDFDFF"/>
<path d="M8 16.6891L12.3089 12.0336C12.6125 11.6975 12.8564 11.4006 13.0407 11.1429C13.2358 10.874 13.3767 10.6218 13.4634 10.3866C13.5501 10.1401 13.5935 9.89356 13.5935 9.64706C13.5935 9.15406 13.4363 8.76751 13.122 8.4874C12.8184 8.20728 12.4228 8.06723 11.935 8.06723C11.4363 8.06723 10.9919 8.20168 10.6016 8.47059C10.2222 8.7395 9.8645 9.16527 9.52846 9.7479L8.01626 8.42017C8.47154 7.62465 9.03523 7.02521 9.70732 6.62185C10.3902 6.20728 11.1707 6 12.0488 6C12.7967 6 13.4472 6.15126 14 6.45378C14.5637 6.7563 14.9973 7.17647 15.3008 7.71429C15.6043 8.2521 15.7561 8.87955 15.7561 9.59664C15.7561 10.0784 15.6965 10.5154 15.5772 10.9076C15.4688 11.2997 15.2791 11.6919 15.0081 12.084C14.748 12.465 14.3848 12.8964 13.9187 13.3782L10.7805 16.6891H8ZM8 18V16.6891L9.88618 16.0168H16V18H8Z" fill="url(#paint0_linear_2102_8)"/>
<defs>
<linearGradient id="paint0_linear_2102_8" x1="8.91266" y1="2.05437" x2="41.6392" y2="20.9371" gradientUnits="userSpaceOnUse">
<stop stop-color="#A854E9"/>
<stop offset="1" stop-color="#4F91FC"/>
</linearGradient>
</defs>
</svg>
