<svg width="24" height="24" viewBox="0 0 24 24" fill="none" xmlns="http://www.w3.org/2000/svg">
<circle cx="12" cy="12" r="12" fill="#FDFDFF"/>
<path d="M12.1721 19C11.3097 19 10.5202 18.8481 9.80364 18.5442C9.08704 18.2281 8.48583 17.7784 8 17.195L9.63968 15.5722C9.88259 15.9369 10.2287 16.2286 10.6781 16.4474C11.1275 16.6662 11.6134 16.7756 12.1356 16.7756C12.6215 16.7756 13.0405 16.6905 13.3927 16.5203C13.7449 16.338 14.0182 16.0888 14.2126 15.7728C14.419 15.4446 14.5223 15.0678 14.5223 14.6424C14.5223 14.1926 14.419 13.8097 14.2126 13.4937C14.0182 13.1777 13.7328 12.9345 13.3563 12.7644C12.9798 12.5942 12.5304 12.5091 12.0081 12.5091C11.7773 12.5091 11.5405 12.5273 11.2976 12.5638C11.0547 12.5881 10.8482 12.6307 10.6781 12.6914L11.7713 11.3057C12.0749 11.2085 12.3725 11.1295 12.664 11.0687C12.9676 10.9958 13.247 10.9593 13.502 10.9593C14.1579 10.9593 14.747 11.1173 15.2692 11.4334C15.8036 11.7373 16.2227 12.1748 16.5263 12.7461C16.8421 13.3053 17 13.9677 17 14.7335C17 15.5844 16.7996 16.3319 16.3988 16.9762C15.998 17.6082 15.4332 18.1066 14.7045 18.4712C13.9879 18.8237 13.1437 19 12.1721 19ZM10.6781 12.6914V11.2693L13.9575 7.45863L16.7996 7.42216L13.4109 11.3057L10.6781 12.6914ZM8.71053 8.15147V6H16.7996V7.42216L14.7773 8.15147H8.71053Z" fill="url(#paint0_linear_2102_9)"/>
<defs>
<linearGradient id="paint0_linear_2102_9" x1="9.02674" y1="1.72557" x2="45.137" y2="23.3619" gradientUnits="userSpaceOnUse">
<stop stop-color="#A854E9"/>
<stop offset="1" stop-color="#4F91FC"/>
</linearGradient>
</defs>
</svg>
